HIERARCHY
ROOT Hips
{
    OFFSET   0.000000   0.000000   0.000000
    CHANNELS 6 Xposition Yposition Zposition Zrotation Xrotation Yrotation
    JOINT Chest
    {
        OFFSET   0.000000   8.007240   0.000000
        CHANNELS 3 Zrotation Xrotation Yrotation
        JOINT Chest2
        {
            OFFSET   0.000000  22.077100   0.000000
            CHANNELS 3 Zrotation Xrotation Yrotation
            JOINT Neck
            {
                OFFSET   0.000000  23.254800   0.000000
                CHANNELS 3 Zrotation Xrotation Yrotation
                JOINT Head
                {
                    OFFSET   0.000000  14.370000   1.956600
                    CHANNELS 3 Zrotation Xrotation Yrotation
                    End Site
                    {
                        OFFSET   0.000000  19.566000   0.000000
                    }
                }
            }
            JOINT LeftCollar
            {
                OFFSET   3.911900  19.017000  -0.467064
                CHANNELS 3 Zrotation Xrotation Yrotation
                JOINT LeftShoulder
                {
                    OFFSET  10.383700   0.000000   0.000000
                    CHANNELS 3 Zrotation Xrotation Yrotation
                    JOINT LeftElbow
                    {
                        OFFSET  26.662100   0.001476   0.000517
                        CHANNELS 3 Zrotation Xrotation Yrotation
                        JOINT LeftWrist
                        {
                            OFFSET  28.869000  -0.000025  -0.000106
                            CHANNELS 3 Zrotation Xrotation Yrotation
                            JOINT LeftFinger0
                            {
                                OFFSET   2.044660  -2.323460   3.252850
                                CHANNELS 3 Zrotation Xrotation Yrotation
                                JOINT LeftFinger01
                                {
                                    OFFSET   3.088130   0.000000   0.000000
                                    CHANNELS 3 Zrotation Xrotation Yrotation
                                    JOINT LeftFinger02
                                    {
                                        OFFSET   2.639460   0.000000   0.000000
                                        CHANNELS 3 Zrotation Xrotation Yrotation
                                        End Site
                                        {
                                            OFFSET   2.582190   0.000000   0.000000
                                        }
                                    }
                                }
                            }
                            JOINT LeftFinger1
                            {
                                OFFSET   8.364480   0.000000   3.252850
                                CHANNELS 3 Zrotation Xrotation Yrotation
                                JOINT LeftFinger11
                                {
                                    OFFSET   4.646930   0.000000   0.000000
                                    CHANNELS 3 Zrotation Xrotation Yrotation
                                    JOINT LeftFinger12
                                    {
                                        OFFSET   2.323460   0.000000   0.000000
                                        CHANNELS 3 Zrotation Xrotation Yrotation
                                        End Site
                                        {
                                            OFFSET   2.273050   0.000000   0.000000
                                        }
                                    }
                                }
                            }
                            JOINT LeftFinger2
                            {
                                OFFSET   8.364490   0.000015   1.078090
                                CHANNELS 3 Zrotation Xrotation Yrotation
                                JOINT LeftFinger21
                                {
                                    OFFSET   5.111620   0.000000   0.000000
                                    CHANNELS 3 Zrotation Xrotation Yrotation
                                    JOINT LeftFinger22
                                    {
                                        OFFSET   2.788160   0.000016   0.000000
                                        CHANNELS 3 Zrotation Xrotation Yrotation
                                        End Site
                                        {
                                            OFFSET   2.727660   0.000000   0.000000
                                        }
                                    }
                                }
                            }
                            JOINT LeftFinger3
                            {
                                OFFSET   7.899780   0.000017  -1.078090
                                CHANNELS 3 Zrotation Xrotation Yrotation
                                JOINT LeftFinger31
                                {
                                    OFFSET   4.646930   0.000000   0.000000
                                    CHANNELS 3 Zrotation Xrotation Yrotation
                                    JOINT LeftFinger32
                                    {
                                        OFFSET   2.323470   0.000000   0.000000
                                        CHANNELS 3 Zrotation Xrotation Yrotation
                                        End Site
                                        {
                                            OFFSET   2.273050   0.000000   0.000000
                                        }
                                    }
                                }
                            }
                            JOINT LeftFinger4
                            {
                                OFFSET   7.435090   0.000000  -3.252850
                                CHANNELS 3 Zrotation Xrotation Yrotation
                                JOINT LeftFinger41
                                {
                                    OFFSET   3.717550   0.000000   0.000000
                                    CHANNELS 3 Zrotation Xrotation Yrotation
                                    JOINT LeftFinger42
                                    {
                                        OFFSET   1.858770   0.000000   0.000000
                                        CHANNELS 3 Zrotation Xrotation Yrotation
                                        End Site
                                        {
                                            OFFSET   1.818440   0.000000   0.000000
                                        }
                                    }
                                }
                            }
                        }
                    }
                }
            }
            JOINT RightCollar
            {
                OFFSET  -3.911900  19.017000  -0.467063
                CHANNELS 3 Zrotation Xrotation Yrotation
                JOINT RightShoulder
                {
                    OFFSET -10.383700   0.000019   0.000000
                    CHANNELS 3 Zrotation Xrotation Yrotation
                    JOINT RightElbow
                    {
                        OFFSET -26.662100   0.001175   0.000102
                        CHANNELS 3 Zrotation Xrotation Yrotation
                        JOINT RightWrist
                        {
                            OFFSET -28.869000   0.000016  -0.000079
                            CHANNELS 3 Zrotation Xrotation Yrotation
                            JOINT RightFinger0
                            {
                                OFFSET  -2.044660  -2.323490   3.252850
                                CHANNELS 3 Zrotation Xrotation Yrotation
                                JOINT RightFinger01
                                {
                                    OFFSET  -3.088140   0.000000   0.000000
                                    CHANNELS 3 Zrotation Xrotation Yrotation
                                    JOINT RightFinger02
                                    {
                                        OFFSET  -2.639460   0.000000   0.000000
                                        CHANNELS 3 Zrotation Xrotation Yrotation
                                        End Site
                                        {
                                            OFFSET  -2.582190   0.000000   0.000000
                                        }
                                    }
                                }
                            }
                            JOINT RightFinger1
                            {
                                OFFSET  -8.364480   0.000000   3.252850
                                CHANNELS 3 Zrotation Xrotation Yrotation
                                JOINT RightFinger11
                                {
                                    OFFSET  -4.646930   0.000000   0.000000
                                    CHANNELS 3 Zrotation Xrotation Yrotation
                                    JOINT RightFinger12
                                    {
                                        OFFSET  -2.323470   0.000000   0.000000
                                        CHANNELS 3 Zrotation Xrotation Yrotation
                                        End Site
                                        {
                                            OFFSET  -2.273050   0.000000   0.000000
                                        }
                                    }
                                }
                            }
                            JOINT RightFinger2
                            {
                                OFFSET  -8.364480   0.000000   1.078090
                                CHANNELS 3 Zrotation Xrotation Yrotation
                                JOINT RightFinger21
                                {
                                    OFFSET  -5.111620   0.000000   0.000000
                                    CHANNELS 3 Zrotation Xrotation Yrotation
                                    JOINT RightFinger22
                                    {
                                        OFFSET  -2.788160   0.000000   0.000000
                                        CHANNELS 3 Zrotation Xrotation Yrotation
                                        End Site
                                        {
                                            OFFSET  -2.727660   0.000000   0.000000
                                        }
                                    }
                                }
                            }
                            JOINT RightFinger3
                            {
                                OFFSET  -7.899780   0.000000  -1.078090
                                CHANNELS 3 Zrotation Xrotation Yrotation
                                JOINT RightFinger31
                                {
                                    OFFSET  -4.646930   0.000000   0.000000
                                    CHANNELS 3 Zrotation Xrotation Yrotation
                                    JOINT RightFinger32
                                    {
                                        OFFSET  -2.323470   0.000000   0.000000
                                        CHANNELS 3 Zrotation Xrotation Yrotation
                                        End Site
                                        {
                                            OFFSET  -2.273050   0.000000   0.000000
                                        }
                                    }
                                }
                            }
                            JOINT RightFinger4
                            {
                                OFFSET  -7.435090   0.000000  -3.252850
                                CHANNELS 3 Zrotation Xrotation Yrotation
                                JOINT RightFinger41
                                {
                                    OFFSET  -3.717550   0.000000   0.000000
                                    CHANNELS 3 Zrotation Xrotation Yrotation
                                    JOINT RightFinger42
                                    {
                                        OFFSET  -1.858770   0.000000   0.000000
                                        CHANNELS 3 Zrotation Xrotation Yrotation
                                        End Site
                                        {
                                            OFFSET  -1.818440   0.000000   0.000000
                                        }
                                    }
                                }
                            }
                        }
                    }
                }
            }
        }
    }
    JOINT LeftHip
    {
        OFFSET   9.783040   0.000000   0.000000
        CHANNELS 3 Zrotation Xrotation Yrotation
        JOINT LeftKnee
        {
            OFFSET   0.000032 -41.789100  -0.002222
            CHANNELS 3 Zrotation Xrotation Yrotation
            JOINT LeftAnkle
            {
                OFFSET   0.000087 -41.133200  -0.000135
                CHANNELS 3 Zrotation Xrotation Yrotation
                JOINT LeftToe
                {
                    OFFSET   0.000000  -6.358960  14.674500
                    CHANNELS 3 Zrotation Xrotation Yrotation
                    End Site
                    {
                        OFFSET   0.000000   0.000000   3.913200
                    }
                }
            }
        }
    }
    JOINT RightHip
    {
        OFFSET  -9.783040   0.000000   0.000000
        CHANNELS 3 Zrotation Xrotation Yrotation
        JOINT RightKnee
        {
            OFFSET   0.000047 -41.789100  -0.000896
            CHANNELS 3 Zrotation Xrotation Yrotation
            JOINT RightAnkle
            {
                OFFSET  -0.000117 -41.133300  -0.000248
                CHANNELS 3 Zrotation Xrotation Yrotation
                JOINT RightToe
                {
                    OFFSET   0.000000  -6.358970  14.674500
                    CHANNELS 3 Zrotation Xrotation Yrotation
                    End Site
                    {
                        OFFSET   0.000000   0.000000   3.913200
                    }
                }
            }
        }
    }
}
MOTION
Frames: 6
Frame Time:   0.016667
 -0.233292  89.550400  -1.657840  -2.325070  -9.060890  -1.176810   1.569870   4.752510  -0.165418   3.170060   9.498660  -0.464392   0.353630  -2.731560   0.007553   0.581580  -5.538450   4.345680  -2.681690  -0.608518   0.572769 -47.156600  23.776300 -73.716100  -9.137870  -0.545286 -121.737000  35.491000  12.048400 -14.971800  37.813800  12.791600 -51.452200 -15.807400   0.002062   0.005782  -2.903740   0.002981   0.001258   4.885540  -0.721793  -8.438780  -0.000000  -0.004709  -0.005495  -0.000000  -0.003274  -0.003709   6.974270  -1.025620  -8.407040  -0.000275  -0.001791   0.005501   0.000000  -0.001377   0.003643  11.198700  -1.644160  -8.308780   0.000000  -0.008872   0.000294   0.000000  -0.005831   0.003800   9.893940  -1.465760  -8.342040  -0.000000   0.000254   0.003492   0.000000  -0.000070   0.002247  -1.375280  -3.693090   5.931630  43.714800  23.618600  71.364900 -12.254000 -21.192500 112.567000 -40.667400  14.891000  27.814400 -49.949200  38.906700  73.176200  21.744500  -0.002858   0.001217   5.872270   0.004841  -0.003773   3.623690  -0.070857  -1.119240   2.965640   0.003691   0.001143   2.075950   0.003436   0.000752   2.036880  -0.104072  -3.081210   2.040030   0.003157   0.000953   1.358630   0.003041   0.000663   1.469550  -0.214631  -8.257780   1.484340  -0.001122   0.007480   0.988560  -0.008250   0.004082   2.182560  -0.365971  -9.643320   3.321750   0.002311   0.000842   2.212260   0.001608   0.000308   3.769700  12.099400   3.213430   0.676201   0.209912  12.417600  -3.437420  -1.853990   4.874150   0.000000   0.000000  -0.000000   1.413290   6.638890  -5.248920   1.148710   5.344070  -2.665560  -4.416160  -2.519860  -0.996640  -0.000000   0.000000   0.000000
 -0.224631  89.551900  -1.682570  -2.328020  -9.030850  -1.191210   1.569610   4.749900  -0.162600   3.169220   9.493510  -0.458589   0.354582  -2.744430   0.007625   0.582295  -5.564530   4.320100  -2.674450  -0.597792   0.552334 -47.040400  23.772000 -73.814500  -9.077220  -0.707058 -121.763000  35.541200  12.033500 -15.178300  37.757500  12.592600 -51.395500 -16.140600   0.002024   0.005825  -3.070340   0.002924   0.001392   4.513800  -0.692196  -8.666040  -0.000000  -0.004861  -0.005291  -0.000000  -0.003379  -0.003568   6.718260  -1.026990  -8.633080  -0.000273  -0.001783   0.005458   0.000000  -0.001356   0.003612  10.815300  -1.647410  -8.536970   0.000000  -0.008931   0.000296   0.000000  -0.005859   0.003559   9.887420  -1.503950  -8.563230  -0.000000   0.000343   0.003287   0.000000   0.000000   0.002111  -1.379650  -3.659550   5.938230  43.601200  23.646400  71.533500 -12.347400 -21.327000 112.530000 -40.674200  14.712600  27.963800 -49.914100  38.942500  73.213300  21.830500  -0.002905   0.001209   5.915260   0.004840  -0.003689   3.235120  -0.076381  -1.372860   2.647920   0.003517   0.001201   1.853550   0.003350   0.000802   1.734590  -0.092161  -3.084930   1.737220   0.002988   0.001107   1.156970   0.002970   0.000773   1.194860  -0.162852  -7.811540   1.205990  -0.001234   0.007810   0.803176  -0.008046   0.004248   1.985820  -0.344413  -9.836910   3.023450   0.002202   0.000910   2.013570   0.001513   0.000388   3.757790  12.072800   3.234700   0.680366   0.166678  12.398700  -3.417320  -1.818280   4.893640   0.000000   0.000000  -0.000000   1.427950   6.584340  -5.236340   1.132760   5.353180  -2.659060  -4.416140  -2.505470  -1.003530  -0.000000   0.000000   0.000000
 -0.218130  89.553000  -1.704650  -2.331490  -9.009470  -1.210240   1.569460   4.750880  -0.160565   3.168750   9.495510  -0.454503   0.352140  -2.757200   0.007696   0.580668  -5.590320   4.320700  -2.680630  -0.595425   0.533411 -46.965400  23.751400 -73.860700  -9.053080  -0.818019 -121.784000  35.572700  12.002300 -15.228800  37.890300  12.648800 -51.242600 -16.137200   0.001996   0.005879  -3.068610   0.002875   0.001509   4.373740  -0.656271  -8.505030  -0.000000  -0.005005  -0.005094  -0.000000  -0.003480  -0.003436   6.518130  -0.979276  -8.474640  -0.000296  -0.001777   0.005412   0.000000  -0.001330   0.003576  10.588700  -1.586300  -8.382820   0.000000  -0.008985   0.000283   0.000000  -0.005878   0.003320   9.891870  -1.476050  -8.402820  -0.000000   0.000426   0.003073  -0.000000   0.000058   0.001972  -1.377920  -3.643350   5.957560  43.497900  23.679500  71.691200 -12.442500 -21.448300 112.452000 -40.614500  14.549600  28.061900 -49.917100  39.023800  73.174100  21.979800  -0.002923   0.001275   5.989890   0.004846  -0.003591   2.985720  -0.087012  -1.657190   2.444010   0.003341   0.001265   1.710820   0.003269   0.000858   1.628690  -0.093030  -3.222720   1.631170   0.002820   0.001270   1.086350   0.002901   0.000884   1.178300  -0.160928  -7.767490   1.189270  -0.001351   0.008132   0.792050  -0.007838   0.004417   1.967000  -0.344835  -9.945890   2.995040   0.002094   0.000987   1.994680   0.001410   0.000474   3.750210  12.023400   3.233820   0.682566   0.199015  12.400800  -3.411870  -1.822850   4.909350  -0.000000   0.000000   0.000000   1.445240   6.542520  -5.228270   1.112410   5.356710  -2.662120  -4.417120  -2.492730  -0.991644  -0.000000   0.000000   0.000000
 -0.211539  89.553900  -1.725860  -2.334640  -8.988750  -1.230080   1.569340   4.751870  -0.158998   3.168370   9.497510  -0.451383   0.347160  -2.771610   0.007764   0.574377  -5.619500   4.323810  -2.690910  -0.595088   0.522785 -46.928200  23.738100 -73.877200  -9.019160  -0.897524 -121.795000  35.600100  11.968700 -15.234400  38.001500  12.742900 -51.100700 -16.113100   0.001969   0.005927  -3.056540   0.002826   0.001622   4.306670  -0.632257  -8.344030  -0.000000  -0.005141  -0.004900  -0.000000  -0.003575  -0.003306   6.349490  -0.930826  -8.316210  -0.000320  -0.001771   0.005361   0.000000  -0.001298   0.003539  10.433200  -1.525130  -8.228700   0.000000  -0.009027   0.000262   0.000000  -0.005886   0.003081   9.896170  -1.448110  -8.242420  -0.000000   0.000501   0.002852  -0.000000   0.000110   0.001830  -1.372310  -3.634690   5.981350  43.398400  23.707500  71.837700 -12.521000 -21.561000 112.355000 -40.522200  14.408600  28.101600 -49.914200  39.119900  73.125500  22.133700  -0.002931   0.001340   6.066850   0.004851  -0.003492   2.881920  -0.099602  -1.945660   2.359480   0.003168   0.001335   1.651650   0.003191   0.000916   1.612910  -0.098456  -3.442440   1.616020   0.002654   0.001440   1.076260   0.002836   0.000999   1.175930  -0.160653  -7.761200   1.186890  -0.001472   0.008452   0.790460  -0.007624   0.004589   1.963100  -0.348473 -10.054600   2.990990   0.001986   0.001073   1.991980   0.001297   0.000567   3.739500  11.973800   3.231240   0.684733   0.231345  12.410600  -3.408770  -1.827430   4.926020   0.000000   0.000000  -0.000000   1.453950   6.504160  -5.217710   1.099860   5.357360  -2.671820  -4.418580  -2.480380  -0.972685  -0.000000   0.000000  -0.000000
 -0.202453  89.554600  -1.746660  -2.332110  -8.964870  -1.245850   1.569250   4.751650  -0.158612   3.168150   9.497070  -0.450597   0.341379  -2.788740   0.007825   0.565090  -5.654200   4.336450  -2.699560  -0.606575   0.530533 -46.917300  23.743700 -73.876400  -8.960110  -0.949061 -121.789000  35.609800  11.962700 -15.080400  37.995800  12.817800 -51.227100 -16.044500   0.001926   0.005952  -3.022220   0.002772   0.001746   4.232190  -0.631233  -8.454810  -0.000000  -0.005274  -0.004705  -0.000000  -0.003660  -0.003174   6.206760  -0.929757  -8.427670  -0.000309  -0.001760   0.005301   0.000000  -0.001262   0.003504  10.326100  -1.537220  -8.339170   0.000000  -0.009050   0.000254   0.000000  -0.005887   0.002841   9.893610  -1.467070  -8.351340  -0.000000   0.000566   0.002624  -0.000000   0.000162   0.001683  -1.363170  -3.631950   6.009040  43.301000  23.717800  71.963400 -12.549100 -21.659000 112.238000 -40.368400  14.315000  28.044000 -49.940900  39.219200  73.126000  22.242700  -0.002945   0.001292   6.121360   0.004849  -0.003408   2.925630  -0.113954  -2.217880   2.395680   0.003002   0.001409   1.676980   0.003113   0.000973   1.785550  -0.115808  -3.646690   1.789420   0.002497   0.001615   1.191730   0.002776   0.001121   1.246980  -0.171496  -7.816830   1.258720  -0.001599   0.008770   0.838300  -0.007405   0.004765   2.039240  -0.369424 -10.242000   3.109080   0.001877   0.001173   2.070650   0.001175   0.000668   3.723710  11.948400   3.205650   0.687743   0.213282  12.439400  -3.402340  -1.810290   4.948050   0.000000   0.000000  -0.000000   1.445390   6.466390  -5.193520   1.102310   5.355220  -2.695420  -4.418750  -2.467460  -0.956263   0.000000   0.000000  -0.000000
 -0.192207  89.555200  -1.768140  -2.326730  -8.932640  -1.258590   1.569140   4.750110  -0.158138   3.167880   9.494030  -0.449594   0.334290  -2.806260   0.007881   0.553034  -5.689720   4.346630  -2.708010  -0.618062   0.543974 -46.905400  23.748000 -73.873600  -8.932710  -0.968033 -121.785000  35.591800  11.970100 -14.861800  37.945600  12.914600 -51.404500 -15.954500   0.001885   0.005971  -2.977240   0.002716   0.001868   4.142550  -0.630101  -8.628880  -0.000000  -0.005399  -0.004515  -0.000000  -0.003739  -0.003046   6.103490  -0.929218  -8.602250  -0.000292  -0.001747   0.005237   0.000000  -0.001220   0.003467  10.236100  -1.549050  -8.512930   0.000000  -0.009058   0.000244   0.000000  -0.005887   0.002600   9.888810  -1.496800  -8.522170  -0.000000   0.000622   0.002393  -0.000000   0.000212   0.001533  -1.354490  -3.628910   6.028490  43.206500  23.721900  72.078900 -12.576500 -21.750000 112.127000 -40.231600  14.237600  27.952400 -50.062100  39.349900  73.225400  22.293800  -0.002952   0.001244   6.146920   0.004847  -0.003323   2.969730  -0.122535  -2.365970   2.431880   0.002840   0.001488   1.702310   0.003039   0.001032   1.958570  -0.128602  -3.765830   1.962830   0.002343   0.001797   1.307200   0.002722   0.001246   1.318000  -0.182335  -7.872460   1.330560  -0.001730   0.009086   0.886141  -0.007181   0.004945   2.141760  -0.392146 -10.372500   3.266140   0.001765   0.001285   2.175260   0.001043   0.000778   3.707980  11.915200   3.171420   0.690798   0.195229  12.460500  -3.395900  -1.789380   4.974550   0.000000   0.000000   0.000000   1.433320   6.421840  -5.167950   1.106220   5.352250  -2.712350  -4.418910  -2.454160  -0.946912   0.000000   0.000000  -0.000000
